<?xml version="1.0" encoding="iso-8859-1"?>
<!-- Generator: Adobe Illustrator 19.0.0, SVG Export Plug-In . SVG Version: 6.00 Build 0)  -->
<svg version="1.1" id="Capa_1" xmlns="http://www.w3.org/2000/svg" xmlns:xlink="http://www.w3.org/1999/xlink" x="0px" y="0px"
	 viewBox="0 0 512.058 512.058" style="enable-background:new 0 0 512.058 512.058;" xml:space="preserve">
<path style="fill:#455A64;" d="M511.512,497.992l-42.667-128c-0.993-2.898-3.185-5.23-6.016-6.4l-102.4-42.667
	c25.737-9.666,48.174-26.491,64.661-48.491c1.671-2.67,2.077-5.941,1.109-8.939c0-0.299-0.832-2.283-0.96-2.581
	c-20.885-49.685-74.987-164.885-126.528-164.885c-9.481,0.117-18.817,2.347-27.328,6.528c-9.696,4.621-20.96,4.621-30.656,0
	c-8.517-4.184-17.861-6.414-27.349-6.528c-51.541,0-105.643,115.2-126.549,164.885c-0.128,0.256-0.853,2.133-0.939,2.496
	c-0.968,2.997-0.562,6.269,1.109,8.939c16.488,22,38.924,38.825,64.661,48.491l-102.4,42.667c-2.831,1.17-5.023,3.502-6.016,6.4
	l-42.667,128c-1.909,5.573,1.062,11.639,6.635,13.547c1.126,0.386,2.308,0.58,3.498,0.575h490.667
	c5.891,0.007,10.673-4.762,10.68-10.653C512.06,500.226,511.875,499.083,511.512,497.992z"/>
<path style="fill:#37474F;" d="M425.517,261.618l-41.472-124.651V96.029c0-66.133-74.859-96-128-96s-128,29.867-128,96v40.939
	L86.573,261.618c-2.08,5.514,0.705,11.67,6.219,13.749s11.67-0.705,13.749-6.219l0,0c30.784-73.109,77.333-151.787,106.837-151.787
	c6.56,0.129,13.003,1.756,18.837,4.757c14.908,7.885,32.751,7.885,47.659,0c5.834-3.001,12.278-4.628,18.837-4.757
	c29.504,0,76.053,78.677,106.859,151.765c1.666,3.957,5.541,6.529,9.835,6.528c1.283,0.009,2.557-0.223,3.755-0.683
	C424.522,272.952,427.329,267.055,425.517,261.618z"/>
<g>
	<path style="fill:#607D8B;" d="M288.045,0.029h-64c-5.891,0-10.667,4.776-10.667,10.667v32c0,23.564,19.103,42.667,42.667,42.667
		s42.667-19.103,42.667-42.667v-32C298.712,4.805,293.936,0.029,288.045,0.029z"/>
	<path style="fill:#607D8B;" d="M320.045,298.696h-128c-5.891,0-10.667-4.776-10.667-10.667c0-2.308,0.749-4.554,2.133-6.4
		l64-85.333c3.896-4.713,10.875-5.375,15.588-1.478c0.538,0.445,1.033,0.94,1.478,1.478l64,85.333
		c3.535,4.713,2.58,11.399-2.133,14.933C324.599,297.947,322.353,298.696,320.045,298.696L320.045,298.696z M213.378,277.362h85.333
		l-42.667-56.896L213.378,277.362z"/>
	<path style="fill:#607D8B;" d="M320.045,298.696c-0.593,0.002-1.186-0.048-1.771-0.149c-5.807-0.969-9.731-6.459-8.768-12.267
		l9.109-54.613l-62.571-17.877l-62.592,17.899l9.109,54.613c0.791,5.838-3.3,11.211-9.138,12.002
		c-5.59,0.758-10.804-2.969-11.897-8.504l-10.667-64c-0.882-5.339,2.373-10.492,7.573-11.989l74.667-21.333
		c1.918-0.54,3.948-0.54,5.867,0l74.667,21.333c5.21,1.498,8.467,6.664,7.573,12.011l-10.667,64
		C329.669,294.94,325.237,298.686,320.045,298.696z"/>
	<path style="fill:#607D8B;" d="M138.712,405.362h213.333c5.891,0,10.667,4.776,10.667,10.667v85.333
		c0,5.891-4.776,10.667-10.667,10.667H138.712c-5.891,0-10.667-4.776-10.667-10.667v-85.333
		C128.045,410.138,132.821,405.362,138.712,405.362z"/>
</g>
<g>
	<path style="fill:#CFD8DC;" d="M224.045,469.362h-42.667c-5.891,0-10.667-4.776-10.667-10.667c0-5.891,4.776-10.667,10.667-10.667
		h42.667c5.891,0,10.667,4.776,10.667,10.667C234.712,464.587,229.936,469.362,224.045,469.362z"/>
	<path style="fill:#CFD8DC;" d="M309.378,469.362h-42.667c-5.891,0-10.667-4.776-10.667-10.667c0-5.891,4.776-10.667,10.667-10.667
		h42.667c5.891,0,10.667,4.776,10.667,10.667C320.045,464.587,315.269,469.362,309.378,469.362z"/>
</g>
<g>
	<path style="fill:#37474F;" d="M234.712,170.696h-42.667c-5.891-0.002-10.665-4.78-10.662-10.671
		c0.001-2.154,0.654-4.257,1.873-6.033c7.084-9.543,18.238-15.207,30.123-15.296c11.689,0.257,22.648,5.737,29.867,14.933
		c3.535,4.713,2.58,11.399-2.133,14.933C239.265,169.947,237.02,170.696,234.712,170.696z"/>
	<path style="fill:#37474F;" d="M320.045,170.696h-42.667c-5.891,0-10.667-4.776-10.667-10.667c0-2.308,0.749-4.554,2.133-6.4
		c7.219-9.197,18.178-14.676,29.867-14.933c11.885,0.089,23.039,5.753,30.123,15.296c3.334,4.857,2.1,11.497-2.756,14.831
		C324.302,170.042,322.199,170.695,320.045,170.696z"/>
</g>
<g>
</g>
<g>
</g>
<g>
</g>
<g>
</g>
<g>
</g>
<g>
</g>
<g>
</g>
<g>
</g>
<g>
</g>
<g>
</g>
<g>
</g>
<g>
</g>
<g>
</g>
<g>
</g>
<g>
</g>
</svg>
