<svg xmlns="http://www.w3.org/2000/svg" xmlns:svgjs="http://svgjs.com/svgjs" xmlns:xlink="http://www.w3.org/1999/xlink" style="enable-background:new 0 0 512 512" width="512" height="512" x="0" y="0" version="1.1" viewBox="0 0 511.996 511.996" xml:space="preserve"><g><path xmlns="http://www.w3.org/2000/svg" fill="#667581" d="m256.011 490.939c-28.389.002-56.771-9.188-80.478-27.574-.026-.021-.053-.041-.08-.062-51.744-40.211-92.796-83.478-122.018-128.598-35.456-54.749-53.435-112.216-53.435-170.803 0-78.763 61.907-142.842 138-142.842 45.524-.308 91.142 22.921 117.597 60.253 80.137-110.085 255.01-60.535 256.399 82.978-2.658 136.511-96.877 237.952-175.449 299.012-23.706 18.423-52.123 27.634-80.536 27.636zm-56.054-59.252c.002.001.005.004.007.005 32.991 25.642 79.062 25.653 112.039.027 71.654-55.685 157.555-147.372 159.997-268.007-.097-56.622-44.022-102.652-98-102.652-56.089 0-98 42.236-98 80 0 11.046-8.954 20-20 20s-20-8.954-20-20c-.597-43.716-54.506-81.832-98-79.999-54.037-.001-98 46.134-98 102.841 0 118.566 86.975 211.06 159.957 267.785zm197.977-203.606c-33.155 0-63.242 24.232-71.542 57.618-.142.568-6.978 43.927-6.978 43.927-.292.842-.909 1.737-2.859 1.655-2.308-.09-2.653-1.389-2.82-2.343l-15.947-108.68c-.019-.128-.039-.256-.06-.384-3.407-20.445-20.244-34.338-40.978-33.8-20.372.535-36.275 14.815-39.018 34.87 0 0-15.173 73.577-15.215 73.829-.16.961-.402 3.192-2.847 3.288-2.44.114-2.801-2.111-3.036-3.057-.155-.624-3.555-10.326-3.555-10.326-8.468-31.819-41.225-56.596-75.08-56.596-11.046 0-20 8.954-20 20s8.954 20 20 20c15.846 0 32.914 12.742 36.524 27.268.155.624 3.572 10.374 3.572 10.374 5.178 18.843 22.425 31.339 41.904 31.338 20.448-.803 38.346-15.173 41.899-35.279 0 0 15.488-75.581 15.508-75.675.237-.053.55-.061.788-.021.018.068 16.035 109.135 16.056 109.263 3.39 20.329 20.75 35.71 41.75 35.71 20 0 37.58-12.979 42.409-32.407.142-.568 6.998-44.061 6.998-44.061 4.126-15.167 17.977-26.511 32.526-26.511 26.529-1.051 26.523-38.951.001-40z" data-original="#000000"/></g></svg>