<?xml version="1.0"?>
<svg xmlns="http://www.w3.org/2000/svg" xmlns:xlink="http://www.w3.org/1999/xlink" xmlns:svgjs="http://svgjs.com/svgjs" version="1.1" width="512" height="512" x="0" y="0" viewBox="0 0 512.198 512.198" style="enable-background:new 0 0 512 512" xml:space="preserve" class=""><g><path xmlns="http://www.w3.org/2000/svg" d="m442.927 512.198c-10.539 0-20.861-3.861-29.17-11.299l-49.87-43.885c-8.292-7.297-9.099-19.935-1.802-28.227 7.297-8.293 19.936-9.099 28.227-1.803l49.945 43.95c.056.05.112.1.167.149.478.429 1.93 1.737 4.303.681 2.373-1.057 2.373-3.012 2.373-3.654v-348.11c0-44.112-35.888-80-80-80h-222c-44.112 0-80 35.888-80 80v222c0 44.112 35.888 80 80 80h154c26.536 1.056 26.516 38.953 0 40h-154c-66.168 0-120-53.832-120-120v-222c0-66.168 53.832-120 120-120h222c66.168 0 120 53.832 120 120v348.111c0 17.623-10.001 33.024-26.1 40.194-5.868 2.613-12.007 3.893-18.073 3.893zm-92.091-248.071c-9.319-5.933-21.68-3.184-27.61 6.136-36.338 52.195-99.284 50.234-135.252 0-5.93-9.319-18.291-12.068-27.61-6.136-9.319 5.93-12.066 18.292-6.136 27.61 1.488 2.338 38.17 57.263 101.871 57.263s99.385-54.925 100.873-57.263c5.93-9.318 3.183-21.68-6.136-27.61zm-16.737-52.127c-11.046 0-20-8.954-20-20v-55c1.056-26.536 38.953-26.516 40 0v55c0 11.046-8.954 20-20 20zm-135-20v-55c-1.056-26.536-38.953-26.516-40 0v55c0 11.046 8.954 20 20 20s20-8.954 20-20z" fill="#667580" data-original="#000000" style="" class=""/></g></svg>
