<svg xmlns="http://www.w3.org/2000/svg" xmlns:svgjs="http://svgjs.com/svgjs" xmlns:xlink="http://www.w3.org/1999/xlink" style="enable-background:new 0 0 512 512" width="512" height="512" x="0" y="0" version="1.1" viewBox="0 0 512 512" xml:space="preserve"><g><path xmlns="http://www.w3.org/2000/svg" fill="#667580" d="m272 512h-152c-66.168 0-120-53.832-120-120v-272c0-66.168 53.832-120 120-120h272c66.168 0 120 53.832 120 120v59c-1.056 26.536-38.953 26.516-40 0v-59c0-44.112-35.888-80-80-80h-272c-44.112 0-80 35.888-80 80v272c0 44.112 35.888 80 80 80h152c26.536 1.056 26.516 38.953 0 40zm150-374c0-11.046-8.954-20-20-20h-207c-26.536 1.056-26.516 38.953 0 40h207c11.046 0 20-8.954 20-20zm-185 118c0-11.046-8.954-20-20-20h-22c-26.536 1.056-26.516 38.953 0 40h22c11.046 0 20-8.954 20-20zm275 119.494c0-20.51-11.691-38.875-29.239-47.958l-5.902-37.712c-4.156-29.307-20.436-55.332-44.686-71.42-33.898-23.038-83.34-23.037-117.237 0-24.251 16.091-40.532 42.12-44.685 71.431l-5.915 38.135c-48.903 26.62-30.218 101.491 25.618 102.031h168.092c29.75-.001 53.954-24.453 53.954-54.507zm-101.94-123.76c14.763 9.794 24.68 25.762 27.209 43.808.015.106.03.211.047.317l7.74 49.45c1.294 8.265 7.595 14.851 15.793 16.51 16.586 3.864 13.644 27.575-2.803 28.181h-168.092c-16.262-.596-19.402-23.858-3.147-28.098 7.979-1.831 14.037-8.338 15.292-16.428l7.7-49.643c.015-.096.029-.193.043-.29 2.529-18.046 12.446-34.013 27.208-43.808 10.282-6.82 23.588-10.733 36.505-10.733s26.222 3.913 36.505 10.734zm-4.06 84.266c0-11.046-8.954-20-20-20h-27c-26.536 1.056-26.516 38.953 0 40h27c11.046 0 20-8.954 20-20zm-30.967 176c-25.483 0-46.919-18.766-49.861-43.652-1.297-10.969 6.544-20.913 17.513-22.21 10.972-1.298 20.914 6.544 22.21 17.514 1.553 11.06 18.73 11.054 20.276.001 1.297-10.969 11.259-18.812 22.209-17.515 10.97 1.296 18.812 11.239 17.516 22.209-2.942 24.886-24.377 43.653-49.863 43.653zm-260.033-398c-13.807 0-25 11.193-25 25 1.321 33.17 48.692 33.145 50 0 0-13.807-11.193-25-25-25zm0 117c-13.807 0-25 11.193-25 25 1.321 33.17 48.692 33.145 50 0 0-13.807-11.193-25-25-25zm0 118c-13.807 0-25 11.193-25 25 1.321 33.17 48.692 33.145 50 0 0-13.807-11.193-25-25-25z" data-original="#000000"/></g></svg>