<?xml version="1.0"?>
<svg xmlns="http://www.w3.org/2000/svg" xmlns:xlink="http://www.w3.org/1999/xlink" xmlns:svgjs="http://svgjs.com/svgjs" version="1.1" width="512" height="512" x="0" y="0" viewBox="0 0 512.001 512.001" style="enable-background:new 0 0 512 512" xml:space="preserve" class=""><g><path xmlns="http://www.w3.org/2000/svg" d="m256.002 511.751c-227.238-.228-341.538-276.195-181.018-437.02 95.289-99.301 266.749-99.317 362.037.004 160.519 160.84 46.205 436.801-181.019 437.016zm0-472c-119.103 0-216 96.897-216 216 11.865 286.553 420.178 286.47 432-.002 0-119.1-96.898-215.998-216-215.998zm40 296c-66.168 0-120-53.832-120-120 6.592-159.196 233.433-159.15 240 .001 0 66.167-53.832 119.999-120 119.999zm0-200c-44.112 0-80 35.888-80 80 4.394 106.131 155.622 106.1 160-.001 0-44.111-35.888-79.999-80-79.999zm-153.998 251c-5.211 0-10.416-2.023-14.336-6.053-7.703-7.917-7.529-20.579.387-28.282l37-36c7.918-7.701 20.579-7.527 28.282.388 7.703 7.917 7.529 20.579-.387 28.282l-37 36c-3.888 3.782-8.921 5.665-13.946 5.665zm194.998-171c0-22.607-18.393-41-41-41-26.531 1.055-26.521 38.951 0 40 .551 0 1 .448 1 1 0 11.046 8.954 20 20 20s20-8.954 20-20z" fill="#667580" data-original="#000000" style="" class=""/></g></svg>
