<svg xmlns="http://www.w3.org/2000/svg" xmlns:svgjs="http://svgjs.com/svgjs" xmlns:xlink="http://www.w3.org/1999/xlink" style="enable-background:new 0 0 512 512" width="512" height="512" x="0" y="0" version="1.1" viewBox="0 0 512.05 512.05" xml:space="preserve"><g><path xmlns="http://www.w3.org/2000/svg" fill="#667581" d="m437.067 74.982c-160.842-160.519-436.804-46.205-437.018 181.021-2.838 137.596 118.392 258.848 256.001 255.996 227.235-.226 341.536-276.193 181.017-437.017zm-181.019 397.019c-119.103 0-216-96.897-216-216 11.865-286.553 420.178-286.47 432 .002 0 119.101-96.898 215.998-216 215.998zm24-216c0 13.807-11.193 25-25 25-33.162-1.317-33.153-48.688 0-50 13.807 0 25 11.193 25 25zm-11.758 59.781c7.811 7.811 7.811 20.474 0 28.284-18.903 18.904-42.751 31.665-68.966 36.905-.088.018-.176.034-.264.051l-51.356 9.547c-13.567 2.681-26-9.707-23.318-23.319l9.547-51.355c.017-.089.034-.177.051-.265 5.295-26.489 18.401-51.268 36.904-69.771 7.811-7.811 20.474-7.811 28.284 0s7.811 20.474 0 28.284c-12.951 12.951-22.16 30.42-25.939 49.202l-4.196 22.572 22.573-4.196c18.395-3.702 35.126-12.669 48.396-25.939 7.81-7.811 20.473-7.811 28.284 0zm61.758-45.781c-17.595.103-26.771-21.674-14.092-34.192 12.158-12.072 20.532-28.079 24.224-46.3l3.848-20.552-20.887 3.856c-16.75 3.352-32.652 12.125-46 25.379-7.838 7.783-20.501 7.739-28.284-.1-7.783-7.838-7.738-20.501.1-28.284 18.982-18.849 41.986-31.385 66.523-36.255.087-.018.175-.034.262-.05l49.676-9.17c6.482-1.196 13.136.876 17.791 5.543 4.654 4.667 6.711 11.326 5.498 17.805l-9.235 49.326c-.017.089-.034.177-.051.266-5.249 26.073-17.448 49.213-35.279 66.919-3.903 3.875-8.999 5.809-14.094 5.809z" data-original="#000000"/></g></svg>